<?xml version="1.0" encoding="utf-8"?>
<!-- Generator: Adobe Illustrator 26.0.0, SVG Export Plug-In . SVG Version: 6.00 Build 0)  -->
<svg version="1.1" id="Layer_1" xmlns="http://www.w3.org/2000/svg" xmlns:xlink="http://www.w3.org/1999/xlink" x="0px" y="0px"
	 viewBox="0 0 612 201.6" style="enable-background:new 0 0 612 201.6;" xml:space="preserve">
<style type="text/css">
	.st0{fill:none;}
	.st1{fill:#FFFFFF;}
	.st2{font-family:'MyriadPro-Regular';}
	.st3{font-size:12px;}
	.st4{fill:#E6332A;}
	.st5{font-size:7.2054px;}
	.st6{fill:#E30613;}
	.st7{font-size:37.8599px;}
	.st8{opacity:0.78;fill:#FFFFFF;}
	.st9{font-size:8px;}
	.st10{font-size:14.9757px;}
</style>
<rect y="0" width="490.4" height="201.6"/>
<rect x="207.8" y="33.7" class="st0" width="85.5" height="10.3"/>
<text transform="matrix(1 0 0 1 207.7598 42.2138)" class="st1 st2 st3">VEDC PRESENTS</text>
<rect x="490.4" class="st4" width="121.6" height="201.6"/>
<text transform="matrix(1.2755 0 0 1 207.7599 61.4473)" class="st1 st2 st5">THE ABYSS OF ADROITNESS</text>
<rect x="205.5" y="77.5" class="st0" width="209" height="28.8"/>
<text transform="matrix(0.7924 0 0 1 205.48 104.377)" class="st6 st2 st7">E - SUMMIT ’23</text>
<rect x="207.8" y="120.6" class="st8" width="181.4" height="1.6"/>
<text transform="matrix(1 0 0 1 207.7508 138.5189)" class="st1 st2 st9">NOVEMBER 2, 2023</text>
<text transform="matrix(1 0 0 1 290.1673 138.5186)" class="st1 st2 st9">SHARAD ARENA</text>
<text transform="matrix(1 0 0 1 356.3345 138.5187)" class="st1 st2 st9">3- 5 PM</text>
<text transform="matrix(0 -0.7237 1 0 557.3142 194.3068)" class="st1 st2 st10">TICKET : 322322</text>
<rect x="497.2" y="4.6" class="st1" width="108" height="108"/>
<image style="overflow:visible;" width="271" height="374" xlink:href="9DAEC50E.png"  transform="matrix(0.5543 0 0 0.3863 14.8931 19.6624)">
</image>
</svg>
